PathFileType  4	(X/Y/Z) C:\Users\antoi\Documents\MyRepositories\mobilecap\ResultsAnalysis
DataRate	CameraRate	NumFrames	NumMarkers	Units	OrigDataRate	OrigDataStartFrame	OrigNumFrames
100.0	100.0	4	51	mm	100.0	139	158
Frame#	Time	r_knee			r_shank_antsup			r_ankle			r_calc			r_5meta			r_toe			L_knee			L_shank_antsup			L_ankle			L_calc			L_5meta			L_toe			r_sh2			r_sh3			r_sh4			L_sh2			L_sh3			r_thigh1			r_thigh2			r_thigh3			r_thigh4			r_thigh5			L_thigh1			L_thigh2			L_thigh3			L_thigh4			r.ASIS			r.PSIS			L.ASIS			L.PSIS			C7			R_Shoulder			L_Shoulder			R_Sternum			L_Sternum			R_humerus			R_elbow_med			R_elbow_lat			R_forearm			R_wrist_radius			R_wrist_ulna			L_humerus			L_elbow_med			L_elbow_lat			L_forearm			L_wrist_radius			L_wrist_ulna			R_HJC			L_HJC			R_HJC_reg			L_HJC_reg			
		X1	Y1	Z1	X2	Y2	Z2	X3	Y3	Z3	X4	Y4	Z4	X5	Y5	Z5	X6	Y6	Z6	X7	Y7	Z7	X8	Y8	Z8	X9	Y9	Z9	X10	Y10	Z10	X11	Y11	Z11	X12	Y12	Z12	X13	Y13	Z13	X14	Y14	Z14	X15	Y15	Z15	X16	Y16	Z16	X17	Y17	Z17	X18	Y18	Z18	X19	Y19	Z19	X20	Y20	Z20	X21	Y21	Z21	X22	Y22	Z22	X23	Y23	Z23	X24	Y24	Z24	X25	Y25	Z25	X26	Y26	Z26	X27	Y27	Z27	X28	Y28	Z28	X29	Y29	Z29	X30	Y30	Z30	X31	Y31	Z31	X32	Y32	Z32	X33	Y33	Z33	X34	Y34	Z34	X35	Y35	Z35	X36	Y36	Z36	X37	Y37	Z37	X38	Y38	Z38	X39	Y39	Z39	X40	Y40	Z40	X41	Y41	Z41	X42	Y42	Z42	X43	Y43	Z43	X44	Y44	Z44	X45	Y45	Z45	X46	Y46	Z46	X47	Y47	Z47	X48	Y48	Z48	X49	Y49	Z49	X50	Y50	Z50	X51	Y51	Z51	

139	1.38000000	1509.76828	600.84800	-76.85320	1553.41585	455.44372	-93.67640	1524.00452	92.45439	-113.32511	1466.80756	68.97542	-176.51477	1663.69839	41.66526	-89.60937	1701.73559	74.88448	-139.14118	1252.30478	577.69737	-348.91988	1184.70249	380.63456	-313.55104	940.80123	183.51317	-297.79846	874.99217	188.13167	-231.11627	1018.98454	40.91933	-321.54275	1066.90613	54.54493	-263.21730	1563.26375	344.24453	-105.88401	1495.38742	443.49421	-47.87406	1500.18774	330.73456	-50.82202	1133.43750	422.48185	-370.28802	1057.61531	336.63661	-346.19977	1461.08518	883.09843	-27.00426	1508.15200	782.96289	-42.83439	1457.93978	734.95426	-30.84186	1357.96142	842.17192	-43.81591	1405.61960	734.70368	-50.00947	1371.77623	860.11638	-369.00199	1350.25417	727.85164	-363.11707	1264.04894	881.29395	-378.79867	1243.41365	745.20461	-376.74310	1431.66008	1153.67710	-67.74781	1238.04591	1176.92134	-141.93393	1411.58419	1142.46674	-345.80943	1233.49846	1178.35472	-235.83179	1293.27785	1672.91081	-183.03301	1354.35652	1611.93668	-13.28726	1350.63773	1646.26365	-360.46415	1427.51349	1577.25157	-159.14268	1430.32682	1582.02003	-217.15969	1310.23623	1340.99964	45.43287	1211.46183	1238.75342	-0.34465	1221.12525	1256.88289	70.39959	1314.71771	1061.32075	86.08853	1348.70177	971.18687	79.84298	1318.10654	967.39933	104.05005	1346.26823	1354.54117	-434.44511	1256.05472	1277.21537	-389.83424	1276.44636	1277.97049	-464.68749	1371.12960	1095.00595	-495.03347	1404.75534	1021.27177	-489.35332	1381.26032	1022.39579	-514.31750	1354.34816	1055.19582	-98.18300	1332.79070	1052.33980	-294.45699	1360.66041	1058.94197	-105.68616	1351.75392	1061.75490	-289.59871	
140	1.39000000	1521.52626	601.37026	-76.76639	1562.26710	454.71989	-94.05333	1524.88196	92.71762	-113.36300	1467.30546	69.39077	-176.35554	1664.26124	40.93704	-89.50061	1702.77835	73.27512	-139.10113	1272.32721	576.29085	-351.24480	1200.65287	381.03795	-316.46439	951.25292	191.19763	-300.13755	886.10537	200.13564	-233.79372	1021.38959	43.73067	-321.91955	1069.55317	55.41608	-263.63742	1569.93154	343.47998	-106.35044	1505.09206	444.01323	-47.26837	1507.74575	331.13041	-50.10488	1150.17558	424.74005	-372.74583	1071.90392	341.09263	-348.69105	1473.28008	884.08767	-26.22687	1520.41732	784.02293	-42.26745	1470.28316	735.98936	-30.11728	1370.03334	842.96995	-42.21417	1417.86685	735.55740	-48.83800	1386.44214	860.33163	-369.63533	1367.54100	727.61685	-365.20697	1278.58507	879.56576	-377.74899	1260.44503	743.09049	-377.21014	1443.66146	1154.67620	-66.75724	1249.83644	1177.37381	-141.01064	1423.20117	1142.54726	-344.59884	1245.25113	1178.48750	-235.05015	1304.46321	1673.37794	-180.92376	1365.97783	1611.90963	-11.57793	1361.34207	1647.27680	-358.61640	1438.75072	1577.76277	-157.61290	1441.37003	1582.58553	-215.64941	1322.61104	1340.77843	46.85453	1224.11769	1238.42664	0.48465	1233.74201	1256.48863	71.87634	1327.07678	1060.80475	87.21221	1360.77805	970.50039	80.81375	1330.36736	966.86373	105.05848	1356.61858	1355.57599	-432.80410	1266.46673	1278.46212	-387.52958	1286.56826	1279.11940	-462.57767	1379.57945	1095.55023	-494.15459	1412.27653	1021.15656	-489.02279	1388.94657	1022.91560	-513.71313	1366.34821	1055.98976	-96.85452	1344.71653	1052.43742	-293.10869	1372.65341	1059.76860	-104.31884	1363.69078	1061.94952	-288.13699	
141	1.40000000	1532.84112	601.79540	-76.73071	1570.78525	454.01759	-94.43343	1525.56275	93.01933	-113.45564	1467.61957	69.73297	-176.23764	1664.58570	40.61660	-89.39686	1703.55373	71.95979	-139.08257	1293.21981	574.92562	-353.60090	1217.57883	381.66420	-319.08549	962.95025	199.31528	-302.59235	898.62242	212.77504	-236.81699	1024.45137	47.52924	-322.50974	1072.89148	56.92640	-264.21843	1576.09197	342.63319	-106.85845	1514.27227	444.46661	-46.80903	1514.77591	331.49695	-49.59272	1168.31566	427.04595	-375.32514	1087.54047	345.63598	-351.35545	1485.00072	884.84299	-25.23784	1532.07987	784.79551	-41.48418	1481.92216	736.78412	-29.43541	1381.58682	843.70242	-40.90601	1429.46268	736.30320	-47.89286	1401.37562	860.70662	-370.31487	1385.27974	727.59184	-367.31101	1293.28558	877.79837	-376.71630	1278.01049	740.90606	-377.74056	1455.53059	1155.71669	-65.60227	1261.41785	1177.90498	-140.05869	1434.49012	1142.71287	-343.26982	1256.72701	1178.70793	-234.19130	1315.56837	1673.90255	-178.90136	1377.50881	1611.98784	-9.94353	1371.99980	1648.32926	-356.83627	1449.90054	1578.34442	-156.13180	1452.33923	1583.20310	-214.18739	1334.99768	1340.66169	48.26495	1236.82029	1238.17202	1.28805	1246.41725	1256.17775	73.39488	1339.52313	1060.38877	88.37322	1372.94571	969.91726	81.82054	1342.73033	966.43777	106.10951	1366.91819	1356.66843	-431.22398	1276.71051	1279.81808	-385.26434	1296.57658	1280.32530	-460.52356	1388.01627	1096.20686	-493.26937	1419.87872	1021.21016	-488.64352	1396.65459	1023.55099	-513.08049	1378.11354	1056.84731	-95.44181	1356.37641	1052.61540	-291.67164	1384.47743	1060.64022	-102.75446	1375.31984	1062.20858	-286.50873	
142	1.41000000	1543.47415	602.00593	-76.67105	1578.81839	453.25878	-94.70390	1526.15319	93.30653	-113.59782	1467.85752	70.04106	-176.16848	1664.75428	40.48314	-89.28401	1704.17630	70.72169	-139.05895	1314.81473	573.72877	-355.90694	1235.37543	382.58023	-321.43043	975.90711	207.77410	-305.12434	912.59187	225.87938	-240.09660	1028.28037	52.31929	-323.31003	1076.98546	59.08958	-264.99540	1581.72639	341.66591	-107.28967	1522.68611	444.75976	-46.51429	1521.07497	331.75007	-49.33123	1187.63029	429.45618	-377.93065	1104.39054	350.29201	-354.09010	1496.16768	885.27462	-24.09115	1543.02345	785.15714	-40.48659	1492.70941	737.24928	-28.77883	1392.53833	844.34867	-39.94704	1440.26840	736.89037	-47.19914	1416.56345	861.29391	-371.00521	1403.40274	727.84918	-369.32637	1308.15810	876.09816	-375.74743	1296.00315	738.80790	-378.28026	1467.31286	1156.73022	-64.35575	1272.82754	1178.48037	-139.05759	1445.45485	1143.02202	-341.91985	1267.93788	1178.98771	-233.21695	1326.58386	1674.46303	-176.97792	1388.93207	1612.16046	-8.39363	1382.61476	1649.37890	-355.12719	1460.95492	1578.95929	-154.71330	1463.23426	1583.85004	-212.78097	1347.37213	1340.64432	49.66288	1249.49762	1237.98996	2.18159	1259.11530	1255.94647	74.94761	1352.04928	1060.07893	89.56561	1385.25272	969.48377	82.85257	1355.21268	966.13986	107.20250	1377.15627	1357.78528	-429.72565	1286.82113	1281.22514	-383.10565	1306.46509	1281.55746	-458.56142	1396.44519	1096.94846	-492.38422	1427.59205	1021.43420	-488.20349	1404.39408	1024.27588	-512.42704	1389.71394	1057.70726	-94.03025	1367.77534	1052.89954	-290.22561	1396.17009	1061.54870	-101.05924	1386.62644	1062.53644	-284.79191	
